<svg xmlns="http://www.w3.org/2000/svg" viewBox="0 0 64 64">
  <defs>
    <radialGradient id="sh" cx="0.5" cy="0.9" r="0.5">
      <stop offset="0" stop-color="#000000" stop-opacity="0.7"/>
      <stop offset="1" stop-color="#000000" stop-opacity="0"/>
    </radialGradient>
    <linearGradient id="vest" x1="0" y1="0" x2="0" y2="1">
      <stop offset="0" stop-color="#8a6238"/>
      <stop offset="1" stop-color="#5a3f1f"/>
    </linearGradient>
    <linearGradient id="shirt" x1="0" y1="0" x2="0" y2="1">
      <stop offset="0" stop-color="#6a9540"/>
      <stop offset="1" stop-color="#3c5f1c"/>
    </linearGradient>
  </defs>
  <ellipse cx="32" cy="60" rx="14" ry="3" fill="url(#sh)"/>
  <g transform="translate(32 32)">
    <ellipse cx="0" cy="-12" rx="9" ry="10" fill="#f4caa0" stroke="#3a1d0c" stroke-width="1.2"/>
    <path d="M-9 -16 Q-7 -22 0 -23 Q7 -22 9 -16 Q9 -10 8 -8 L-8 -8 Q-9 -10 -9 -16 Z" fill="#1a1228"/>
    <circle cx="-3" cy="-12" r="1.3" fill="#1a1228"/>
    <circle cx="3" cy="-12" r="1.3" fill="#1a1228"/>
    <path d="M-2 -8 L2 -8" stroke="#3a1d0c" stroke-width="1" stroke-linecap="round"/>
    <path d="M-9 -3 L9 -3 L11 14 L-11 14 Z" fill="url(#shirt)" stroke="#1c2a10" stroke-width="1.2"/>
    <path d="M-9 -3 L9 -3 L11 10 L-11 10 Z" fill="url(#vest)" stroke="#2c1c0a" stroke-width="1.2"/>
    <circle cx="0" cy="3" r="2" fill="#d4a050" stroke="#2c1c0a" stroke-width="0.8"/>
    <path d="M-14 6 L-9 -2 L-7 5 Z" fill="#9d9d9d" stroke="#1c1c1c" stroke-width="0.8" transform="rotate(-15 -10 2)"/>
    <rect x="-15" y="-4" width="3" height="14" fill="#5a3a1e" stroke="#1c1c1c" stroke-width="0.6" transform="rotate(-15 -10 2)"/>
  </g>
</svg>
