<svg xmlns="http://www.w3.org/2000/svg" viewBox="0 0 64 64" shape-rendering="geometricPrecision">
  <defs>
    <radialGradient id="bm-shadow" cx="0.5" cy="0.9" r="0.55">
      <stop offset="0" stop-color="#000" stop-opacity="0.72"/>
      <stop offset="1" stop-color="#000" stop-opacity="0"/>
    </radialGradient>
    <linearGradient id="bm-coat" x1="0" y1="0" x2="0" y2="1">
      <stop offset="0" stop-color="#3d6432"/>
      <stop offset="0.55" stop-color="#2c4a22"/>
      <stop offset="1" stop-color="#1b321a"/>
    </linearGradient>
    <linearGradient id="bm-vest" x1="0" y1="0" x2="0" y2="1">
      <stop offset="0" stop-color="#8b6034"/>
      <stop offset="1" stop-color="#553918"/>
    </linearGradient>
    <linearGradient id="bm-skin" x1="0" y1="0" x2="0" y2="1">
      <stop offset="0" stop-color="#f7d3a6"/>
      <stop offset="1" stop-color="#d8a36c"/>
    </linearGradient>
    <linearGradient id="bm-pants" x1="0" y1="0" x2="0" y2="1">
      <stop offset="0" stop-color="#3a2718"/>
      <stop offset="1" stop-color="#21150b"/>
    </linearGradient>
    <radialGradient id="bm-rim" cx="0.5" cy="0.4" r="0.7">
      <stop offset="0.6" stop-color="#ffffff" stop-opacity="0"/>
      <stop offset="1" stop-color="#ffe9a8" stop-opacity="0.18"/>
    </radialGradient>
  </defs>

  <ellipse cx="32" cy="59" rx="16" ry="3.6" fill="url(#bm-shadow)"/>

  <g transform="translate(32 36)">
    <path d="M-10 14 L-10 24 L-3 24 L-3 14 Z" fill="url(#bm-pants)" stroke="#0e0a05" stroke-width="0.8"/>
    <path d="M3 14 L3 24 L10 24 L10 14 Z" fill="url(#bm-pants)" stroke="#0e0a05" stroke-width="0.8"/>
    <ellipse cx="-6.5" cy="24.5" rx="4.5" ry="1.6" fill="#1a0f08"/>
    <ellipse cx="6.5" cy="24.5" rx="4.5" ry="1.6" fill="#1a0f08"/>

    <path d="M-13 -3 L-6 -2 L-3 18 L3 18 L6 -2 L13 -3 L11 15 L-11 15 Z" fill="url(#bm-coat)" stroke="#0e1c0a" stroke-width="1.2" stroke-linejoin="round"/>
    <path d="M-9 -2 L9 -2 L8 12 L-8 12 Z" fill="url(#bm-vest)" stroke="#2c1c0a" stroke-width="1"/>
    <circle cx="0" cy="3" r="2.2" fill="#e8b252" stroke="#3a280f" stroke-width="0.8"/>
    <circle cx="0" cy="9" r="1.6" fill="#c69540" stroke="#3a280f" stroke-width="0.6"/>

    <path d="M-15 -2 L-12 9 L-9 -1 Z" fill="url(#bm-coat)" stroke="#0e1c0a" stroke-width="1"/>
    <path d="M15 -2 L12 9 L9 -1 Z" fill="url(#bm-coat)" stroke="#0e1c0a" stroke-width="1"/>
    <ellipse cx="-13" cy="9" rx="2.4" ry="2.2" fill="url(#bm-skin)" stroke="#3a1d0c" stroke-width="0.6"/>
    <ellipse cx="13" cy="9" rx="2.4" ry="2.2" fill="url(#bm-skin)" stroke="#3a1d0c" stroke-width="0.6"/>

    <ellipse cx="0" cy="-12" rx="9" ry="10" fill="url(#bm-skin)" stroke="#3a1d0c" stroke-width="1.2"/>
    <path d="M-9 -16 Q-8 -23 0 -24 Q8 -23 9 -16 Q9 -10 8 -8 L-8 -8 Q-9 -10 -9 -16 Z" fill="#1a1228" stroke="#0a0612" stroke-width="0.8"/>
    <path d="M-3 -19 L7 -16" stroke="#1a1228" stroke-width="2.4" stroke-linecap="round"/>
    <ellipse cx="-3.2" cy="-12" rx="1.4" ry="1.7" fill="#1a1228"/>
    <ellipse cx="3.2" cy="-12" rx="1.4" ry="1.7" fill="#1a1228"/>
    <circle cx="-2.6" cy="-12.4" r="0.5" fill="#fff"/>
    <circle cx="3.6" cy="-12.4" r="0.5" fill="#fff"/>
    <path d="M-2.4 -8 Q0 -6.5 2.4 -8" stroke="#3a1d0c" stroke-width="1" stroke-linecap="round" fill="none"/>
    <path d="M-7 -10 L-5 -9 M5 -9 L7 -10" stroke="#3a1d0c" stroke-width="0.6" stroke-linecap="round"/>

    <rect x="-16" y="-7" width="3" height="18" fill="#6a3f1b" stroke="#1c1c1c" stroke-width="0.6" transform="rotate(-12 -14 2)"/>
    <path d="M-19 1 L-13 -8 L-11 4 Z" fill="#a7a7a7" stroke="#1c1c1c" stroke-width="0.7" transform="rotate(-12 -14 2)"/>
    <path d="M-13 -8 L-13 4" stroke="#1c1c1c" stroke-width="0.4" transform="rotate(-12 -14 2)"/>
  </g>

  <rect x="0" y="0" width="64" height="64" fill="url(#bm-rim)" pointer-events="none"/>
</svg>
